# xmcd
#
# Track frame offsets:
#	150
#	19462
#	43770
#
# Disc length: 907 seconds
#
# Revision: 0
# Processed by: cddbd v1.5.1PL0 Copyright (c) Steve Scherf et al.
# Submitted via: CDDB.pm 1.12
#
DISCID=22038903
DTITLE=Jurassic 5 - Concrete schoolyard (Single - Disc 1)
DYEAR=1998
DGENRE=Hip Hop
TTITLE0=Concrete schoolyard (Clean radio edit)
TTITLE1=Concrete schoolyard (Original album version)
TTITLE2=Concrete schoolyard (Instrumental)
EXTD=
EXTT0=
EXTT1=
EXTT2=
PLAYORDER=
